<?xml version="1.0" standalone="no"?><!DOCTYPE svg PUBLIC "-//W3C//DTD SVG 1.1//EN" "http://www.w3.org/Graphics/SVG/1.1/DTD/svg11.dtd"><svg t="1532311601468" class="icon" style="" viewBox="0 0 1024 1024" version="1.1" xmlns="http://www.w3.org/2000/svg" p-id="5702" xmlns:xlink="http://www.w3.org/1999/xlink" width="64" height="64"><defs><style type="text/css"></style></defs><path d="M948.693577 408.148846h-85.656137c-7.836526-17.333394-19.594971-53.676617-34.153326-79.392183l60.464275-58.704457c19.034697-19.008366 19.034697-49.2032 0-68.211566l-68.864-68.205714c-19.033234-19.008366-49.824914-19.008366-68.858149 0l-57.107017 60.377965c-25.750674-14.534949-62.142171-25.715566-79.49312-34.102125V74.930469c0-26.840503-28.553509-48.642926-55.426194-48.642926h-97.971932c-26.877074 0-55.426194 21.802423-55.426194 48.642926v85.540571c-17.3568 7.826286-53.748297 19.56864-79.498972 34.102126l-58.223177-60.377966c-19.034697-19.014217-49.269029-19.014217-68.303725 0l-68.856686 68.765989c-19.034697 19.006903-19.034697 49.757623 0 68.765988l61.02016 57.029486c-14.553966 25.715566-25.750674 62.058789-34.148937 79.392183H72.535771c-26.877074 0-48.708754 28.509623-48.708754 55.351588v97.28c0 26.836114 21.83168 55.351589 48.708754 55.351589h85.654675c7.837989 17.329006 19.594971 53.670766 34.148937 79.392183l-60.459886 58.704457c-19.039086 19.008366-19.039086 49.197349 0 68.205714l68.858149 68.770377c19.033234 19.008366 49.824914 19.008366 68.856685 0l57.10848-60.383817c25.750674 14.534949 62.142171 25.721417 79.498972 34.102126v85.54496c0 26.834651 28.54912 48.638537 55.426194 48.638537h97.411657c26.871223 0 55.426194-21.802423 55.426195-48.638537v-85.54496c17.350949-7.826286 53.742446-19.567177 79.498971-34.102126l58.783451 60.383817c19.034697 19.008366 49.26464 19.008366 68.297875 0l68.862537-68.770377c19.034697-19.008366 19.034697-49.759086 0-68.765988l-60.464274-57.030949c14.553966-25.714103 25.756526-62.057326 34.148937-79.392183h85.660525c26.871223 0 48.702903-28.50816 48.702903-55.345737v-98.399086c-0.560274-26.841966-22.391954-55.351589-49.263177-55.351588zM510.892617 668.68224c-86.778149 0-156.756846-69.885074-156.756846-156.546194 0-86.659657 69.978697-156.544731 156.756846-156.544732 86.776686 0 156.755383 69.885074 156.755383 156.544732 0 86.66112-70.538971 156.546194-156.755383 156.546194z m0 0" p-id="5703" fill="#108ee9"></path></svg>