<?xml version="1.0" standalone="no"?><!DOCTYPE svg PUBLIC "-//W3C//DTD SVG 1.1//EN" "http://www.w3.org/Graphics/SVG/1.1/DTD/svg11.dtd"><svg t="1532181822872" class="icon" style="" viewBox="0 0 1040 1024" version="1.1" xmlns="http://www.w3.org/2000/svg" p-id="25126" xmlns:xlink="http://www.w3.org/1999/xlink" width="65" height="64"><defs><style type="text/css"></style></defs><path d="M689.516 795.205c-7.326 4.884-15.107 9.347-23.525 13.509-47.619 23.525-111.591 37.398-182.041 37.489-70.45-0.091-134.205-13.962-181.98-37.489-8.293-4.193-16.044-8.624-23.494-13.509-15.862 14.656-23.132 29.614-22.83 42.34-0.876 20.538 19.332 47.411 61.374 68.067 41.587 20.596 101.124 33.899 166.931 33.84 65.929 0.061 125.435-13.239 166.897-33.84 42.161-20.658 62.277-47.532 61.493-68.067 0.604-12.726-6.907-27.687-22.83-42.34zM631.582 343.937c41.379 20.446 101.063 33.957 166.931 33.957s125.28-13.509 166.748-33.957c42.281-20.719 62.157-47.619 61.555-68.099 0.604-20.479-19.271-47.26-61.555-68.067-41.47-20.414-100.91-33.867-166.748-33.867l-0.358 0c-65.867 0-125.189 13.452-166.569 33.867-42.221 20.783-62.188 47.589-61.555 68.067-0.604 20.479 19.332 47.382 61.555 68.099zM91.886 291.943c0 0 0 0 0 0 0.935 0.635 1.719 0.967 2.742 1.599 41.47 20.385 101.034 33.867 166.807 33.686 65.867 0.181 125.404-13.3 166.931-33.686 0.876-0.635 1.567-0.935 2.565-1.599l0 0c40.324-20.446 59.682-46.414 58.93-66.531 0.753-20.479-19.392-47.26-61.493-67.977-41.5-20.567-101.063-33.957-166.931-33.84-65.776-0.119-125.375 13.271-166.807 33.84-42.252 20.719-62.369 47.501-61.493 67.977-0.876 20.115 18.484 46.022 58.748 66.531zM91.886 425.126c0 0 0 0 0 0 0.935 0.358 1.719 0.848 2.742 1.294 41.47 20.567 101.034 33.867 166.807 33.867 10.86 0 21.627-0.358 32.059-1.085 1.987-0.119 3.861-0.304 5.759-0.358 10.315-0.907 20.238-1.868 30.132-3.348l0.091 0c29.013-4.314 55.613-11.158 78.446-19.993 0.091 0 0.119-0.119 0.208-0.119 0.304-0.119 0.662-0.24 0.996-0.451 6.666-2.565 13.18-5.428 19.207-8.503 0.876-0.27 1.567-0.935 2.565-1.294l0 0c40.324-20.596 59.682-46.596 58.93-66.715 0.484-12.636-7.118-27.596-22.862-42.194-7.539 4.765-15.018 9.437-23.374 13.393-47.952 23.525-111.947 37.37-182.191 37.427-70.361-0.061-134.33-13.904-182.099-37.427-8.293-3.949-15.982-8.624-23.433-13.3-15.743 14.508-23.281 29.494-22.77 42.103-0.693 20.115 18.517 46.111 58.778 66.715zM709.662 557.041c-0.091-0.24-0.091-0.304-0.208-0.358-0.876-2.505-2.201-5.218-3.649-7.781 0 0 0 0-0.091 0-1.421-2.505-3.107-5.068-5.099-7.539-0.181-0.181-0.24-0.24-0.24-0.331-0.061 0-0.061 0-0.061 0-9.951-13.088-26.269-26.449-49.491-37.669-41.47-20.719-101.002-34.139-166.718-34.111-11.188 0-21.898 0.604-32.545 1.355-1.84 0.15-3.649 0.394-5.579 0.576-50.483 3.829-95.483 15.652-128.99 32.178-22.889 11.129-38.907 24.278-49.042 37.186-0.813 0.967-1.599 2.051-2.354 3.078-0.783 1.263-1.84 2.537-2.595 3.949-1.478 2.291-2.742 4.675-3.772 6.907-0.331 0.635-0.394 1.263-0.576 1.9-0.876 1.987-1.355 4.012-1.959 6.004-0.15 0.635-0.208 1.294-0.358 1.929-0.484 2.354-0.848 4.731-0.693 6.937-0.15 2.384 0.208 4.615 0.576 7.118 0.27 0.604 0.358 1.536 0.513 2.323 0.358 1.39 0.935 2.955 1.421 4.432 0.848 2.443 2.08 4.765 3.41 7.326 0.15 0.331 0.484 0.662 0.545 0.935l0 0c8.655 15.139 25.786 31.034 52.479 44.576 0.848 0.358 1.567 0.813 2.471 1.325 4.854 2.505 10.284 4.765 15.502 6.997 1.868 0.753 3.772 1.39 5.61 2.08 3.62 1.421 7.357 2.866 11.282 4.314 2.323 0.635 4.731 1.421 7.238 2.141 3.5 0.907 7.056 2.258 10.676 3.165 2.835 0.813 5.636 1.658 8.444 2.258 3.561 0.783 7.027 1.778 10.558 2.505 3.135 0.662 6.393 1.453 9.682 1.987 3.197 0.662 6.633 1.236 10.161 1.9 3.649 0.545 7.209 1.206 10.736 1.658 3.107 0.635 6.275 0.876 9.437 1.236 4.13 0.484 8.203 1.114 12.394 1.453 1.987 0.15 4.163 0.208 6.183 0.513 12.847 1.055 25.692 1.658 39.236 1.658 65.716 0 125.25-13.271 166.718-33.899 16.015-7.781 28.983-16.589 38.663-25.543l0 0c2.866-2.595 5.666-5.399 7.935-8.174 1.778-2.051 2.955-3.979 4.523-5.974 0.545-0.662 1.178-1.421 1.658-2.141 0.996-1.567 1.84-3.165 2.742-4.675 0.576-0.876 1.147-1.9 1.536-2.895l0.091-0.119c0-0.091 0-0.091 0.119-0.27 0.484-1.294 0.996-2.505 1.478-3.772 0.576-1.453 0.996-2.625 1.355-4.069 0.27-0.996 0.635-2.171 0.753-3.26 0.576-2.354 0.693-4.731 0.635-7.181l0.061 0c0-2.201-0.15-4.581-0.604-7.056-0.484-2.323-1.294-4.825-2.201-7.087zM55.905 449.164c-15.743 14.598-23.281 29.677-22.77 42.374-0.876 20.628 19.241 47.382 61.493 68.006 32.997 16.439 77.298 28.078 127.15 32.178-1.567-6.516-2.742-13.212-2.804-20.479 0.061-3.891 0.422-7.781 0.935-11.705 0.181-1.206 0.635-2.537 0.813-3.918 0.358-2.471 0.967-4.854 1.778-7.181 0.27-1.478 0.724-3.015 1.263-4.523 0.693-2.051 1.507-4.099 2.354-6.244 0.635-1.453 1.263-3.015 2.018-4.403 0.724-1.658 1.536-3.26 2.595-4.884 5.7-10.225 13.362-19.697 22.529-28.378-67.103-1.055-128.023-14.508-173.926-37.37-8.293-4.099-15.982-8.532-23.433-13.479zM1004.106 366.711c-7.598 4.643-15.382 9.285-23.494 13.362-47.892 23.556-111.739 37.427-182.068 37.427-70.45 0-134.3-13.873-182.162-37.427-8.324-4.099-15.982-8.719-23.403-13.362-15.77 14.419-23.309 29.582-22.708 42.252-0.545 9.107 3.561 19.818 11.762 30.308 31.337 6.485 59.713 15.891 83.995 27.956 20.567 9.922 38.333 22.226 52.479 36.733 24.914 4.403 51.872 6.967 80.042 6.907 65.867 0.091 125.28-13.393 166.748-33.867 0.935-0.451 1.84-0.935 2.774-1.507 0 0 0 0-0.119 0 40.352-20.479 59.502-46.475 58.899-66.503 0.451-12.699-6.967-27.897-22.739-42.281zM1004.106 499.709c-7.598 4.884-15.382 9.261-23.795 13.393-47.589 23.525-111.436 37.55-181.77 37.55-18.187 0-36.282-0.935-53.411-2.804 2.201 7.476 3.743 15.291 4.039 23.403 0 1.778-0.304 3.165-0.422 4.825-0.061 0-0.119 0-0.304 0.061-1.567 23.494-12.003 43.762-28.349 60.892l0 0c0 0.119 0 0.119 0 0.24 24.4 4.225 50.757 6.694 78.446 6.694 65.867 0 125.28-13.3 166.748-33.899 0.935-0.545 1.84-1.147 2.774-1.421l0-0.061c40.23-20.628 59.385-46.444 58.778-66.503 0.451-12.758-6.967-27.775-22.739-42.374zM243.617 633.01c-63.301-2.171-120.489-15.652-164.249-37.157-8.324-4.099-16.044-8.777-23.494-13.422-15.743 14.656-23.281 29.554-22.77 42.221-0.876 20.596 19.241 47.44 61.493 68.067 33.055 16.379 77.298 27.863 127.15 32.09-1.567-6.516-2.742-13.271-2.895-20.297 0.513-26.3 11.909-48.193 29.829-66.503-1.778-1.69-3.44-3.348-5.068-5.006zM710.143 691.883c-0.484-1.453-1.085-2.955-1.69-4.345-0.753-1.9-1.536-3.681-2.656-5.428-0.545-0.935-1.294-2.08-1.9-3.078-3.71-5.579-8.234-11.188-14.419-16.983-3.681 2.291-7.326 4.643-11.158 6.967l-0.119 0c-3.829 1.987-8.083 4.403-12.244 6.485-6.004 3.047-12.332 5.823-18.91 8.503-1.599 0.635-3.197 1.029-4.884 1.747-5.185 1.987-10.375 3.979-15.804 5.73-1.029 0.576-2.354 0.724-3.378 1.147-6.094 1.868-12.489 3.801-18.788 5.579-0.635 0.119-1.206 0.24-1.9 0.451-7.056 1.69-14.145 3.44-21.594 4.794-29.888 6.094-62.457 9.652-96.601 9.652-30.548 0-59.595-2.895-86.887-7.843l0 0c-17.493-3.015-34.32-7.056-49.916-12.003-0.358 0-0.848-0.24-1.355-0.27-7.087-2.411-13.962-4.675-20.688-7.57-0.876-0.181-1.719-0.394-2.443-0.724-7.357-2.835-14.177-5.852-20.87-9.199-8.293-4.284-16.044-8.532-23.494-13.452-15.862 14.598-23.132 29.709-22.83 42.403-0.15 1.987 0.15 4.372 0.576 6.546 0.119 0.935 0.358 2.113 0.662 3.107 0.181 0.967 0.604 1.747 0.876 2.955 5.941 18.125 25.337 38.814 59.262 55.431 41.587 20.688 101.124 33.84 166.931 33.84 65.929 0 125.435-13.18 166.897-33.84 28.802-14.235 47.169-30.972 55.674-46.988 0.422-0.783 0.996-1.599 1.206-2.233 0.783-1.507 1.39-3.26 1.959-4.675 0.451-1.147 0.876-2.505 1.236-3.681 0.331-1.085 0.693-2.201 0.876-3.587 0.451-2.258 0.604-4.581 0.604-6.842 0-2.742-0.358-5.49-1.029-8.719-0.15-1.206-0.724-2.443-1.206-3.891zM1004.106 632.771c-7.598 4.974-15.382 9.5-23.494 13.572-47.892 23.403-111.739 37.337-182.068 37.337-18.187 0-36.065-0.813-53.411-2.774 2.201 7.57 3.743 15.169 4.039 23.587-0.545 25.575-11.615 47.472-29.075 65.957 24.4 4.069 50.757 6.546 78.446 6.546 65.867 0 125.28-13.271 166.748-33.957 42.281-20.567 62.157-47.319 61.555-67.889 0.451-12.665-6.967-27.714-22.739-42.374z" p-id="25127" fill="#ff8400"></path></svg>