<?xml version="1.0" standalone="no"?><!DOCTYPE svg PUBLIC "-//W3C//DTD SVG 1.1//EN" "http://www.w3.org/Graphics/SVG/1.1/DTD/svg11.dtd"><svg t="1532318633088" class="icon" style="" viewBox="0 0 1029 1024" version="1.1" xmlns="http://www.w3.org/2000/svg" p-id="18448" xmlns:xlink="http://www.w3.org/1999/xlink" width="64.3125" height="64"><defs><style type="text/css"></style></defs><path d="M447.8599 453.412935c-0.509453 0-1.018905-0.509453-1.528358-0.509452-16.81194-2.547264-34.642786-4.075622-55.020895-4.075622-91.19204 0-148.760199 28.529353-148.760199 47.379104 0 19.359204 58.077612 47.379104 148.760199 47.379105s148.760199-28.0199 148.760199-47.379105c0.509453-14.774129-34.642786-34.642786-92.210946-42.79403zM612.413134 654.137313c-14.774129 0-29.548259-0.509453-43.812935-2.037811v58.077612c14.264677 1.528358 28.529353 2.037811 43.812935 2.037811 91.19204 0 148.760199-28.0199 148.760199-46.869651v-44.322388c-8.151244 5.094527-17.321393 9.679602-28.529353 14.264676-32.604975 12.226866-75.399005 18.849751-120.230846 18.849751zM391.310647 653.118408c-44.831841 0-87.625871-6.622886-120.230846-18.849751-11.20796-4.075622-20.887562-9.170149-28.529353-14.264677v33.623881c0 19.359204 58.077612 47.379104 148.760199 47.379104 90.682587 0 148.760199-28.0199 148.760199-47.379104v-33.623881c-8.151244 5.094527-17.321393 9.679602-28.529353 14.264677-32.095522 12.226866-74.889552 18.849751-120.230846 18.849751z" fill="#ffc629" p-id="18449"></path><path d="M391.310647 729.026866c-44.831841 0-87.625871-6.622886-120.230846-18.849752-11.20796-4.075622-20.887562-9.170149-28.529353-14.264676V729.536318c0 19.359204 58.077612 47.379104 148.760199 47.379105s148.760199-28.0199 148.760199-47.379105v-33.62388c-8.151244 5.094527-17.321393 9.679602-28.529353 14.264676-32.095522 12.226866-74.889552 18.849751-120.230846 18.849752zM391.310647 572.115423c-44.831841 0-87.625871-6.622886-120.230846-18.849751-11.20796-4.075622-20.887562-9.170149-28.529353-14.264677v38.718408c0 19.359204 58.077612 47.379104 148.760199 47.379104s148.760199-28.0199 148.760199-47.379104v-38.718408c-8.151244 5.094527-17.321393 9.679602-28.529353 14.264677-32.095522 12.226866-74.889552 18.849751-120.230846 18.849751zM612.413134 481.432836c-16.81194 0-32.604975-1.018905-48.39801-2.547264 3.056716 5.60398 4.585075 11.717413 4.585075 17.830846v40.756219c14.264677 1.528358 28.529353 2.037811 43.812935 2.037811 90.682587 0 148.760199-28.0199 148.760199-47.379105V448.318408c-8.151244 5.094527-17.321393 9.679602-28.529353 14.264677-32.604975 12.226866-75.399005 18.849751-120.230846 18.849751z" fill="#ffc629" p-id="18450"></path><path d="M501.861891 20.378109C224.719602 20.378109 0.050945 245.046766 0.050945 522.189055S224.719602 1024 501.861891 1024s501.810945-224.668657 501.810945-501.810945S779.004179 20.378109 501.861891 20.378109z m287.331343 642.929354v2.037811c0 22.925373-20.378109 42.79403-57.058707 56.549253-32.095522 12.226866-74.889552 18.849751-120.230845 18.849752-14.774129 0-30.057711-0.509453-44.831841-2.037811-4.585075 19.359204-23.944279 35.661692-56.039801 47.888557-32.095522 12.226866-74.889552 18.849751-120.230846 18.849751-44.831841 0-87.625871-6.622886-120.230846-18.849751-36.680597-13.755224-57.058706-33.623881-57.058706-56.549254V496.716418c0-22.925373 20.378109-42.79403 57.058706-57.058707 32.095522-12.226866 74.889552-18.849751 120.230846-18.849751 14.774129 0 29.548259 1.018905 43.812935 2.037811V314.841791c0-22.925373 20.378109-42.79403 57.058707-56.549254 32.095522-12.226866 74.889552-18.849751 120.230846-18.849751 44.831841 0 87.625871 6.622886 120.230845 18.849751 36.680597 13.755224 57.058706 33.623881 57.058707 56.549254v348.465672z" fill="#ffc629" p-id="18451"></path><path d="M612.413134 267.462687c-90.682587 0-148.760199 28.529353-148.760199 47.379104 0 19.359204 58.077612 47.379104 148.760199 47.379105 91.19204 0 148.760199-28.529353 148.760199-47.379105s-58.077612-47.379104-148.760199-47.379104z" fill="#ffc629" p-id="18452"></path><path d="M612.413134 390.240796c-44.831841 0-87.625871-6.622886-120.230845-18.849751-11.20796-4.075622-20.887562-9.170149-28.529354-14.264677v48.39801c0 19.359204 58.077612 47.379104 148.760199 47.379105s148.760199-28.0199 148.760199-47.379105v-48.39801c-8.151244 5.094527-17.321393 9.679602-28.529353 14.264677-32.604975 12.226866-75.399005 18.849751-120.230846 18.849751zM612.413134 567.530348c-14.774129 0-29.548259-0.509453-43.812935-2.037811v58.077612c14.264677 1.528358 28.529353 2.037811 43.812935 2.037811 90.682587 0 148.760199-28.0199 148.760199-47.379104V534.925373c-8.151244 5.094527-17.321393 9.679602-28.529353 14.264677-32.604975 11.717413-75.399005 18.340299-120.230846 18.340298z" fill="#ffc629" p-id="18453"></path></svg>