<?xml version="1.0" standalone="no"?><!DOCTYPE svg PUBLIC "-//W3C//DTD SVG 1.1//EN" "http://www.w3.org/Graphics/SVG/1.1/DTD/svg11.dtd"><svg t="1532424665939" class="icon" style="" viewBox="0 0 1037 1024" version="1.1" xmlns="http://www.w3.org/2000/svg" p-id="14040" xmlns:xlink="http://www.w3.org/1999/xlink" width="64.8125" height="64"><defs><style type="text/css"></style></defs><path d="M1036.05 898.95v0.004c0 68.117-55.217 123.34-123.33 123.34l-0.005 0.001H123.34c-0.003 0-0.003-0.002-0.01-0.002C55.217 1022.293 0 967.073 0 898.954V158.916c0-54.494 44.179-98.674 98.674-98.674h0.01l398.88 0.003L584.886 16.8c12.672-4.599 32.14-6.236 42.315 2.139l23.787 41.305h187.723c54.494 0 98.668 44.177 98.668 98.674v74h0.003c54.494 0 98.671 44.173 98.671 98.672l-0.003 567.36zM98.675 109.583h-0.003c-27.245 0-49.333 46.752-49.333 74.002 0 27.25 22.088 49.337 49.34 49.337h35.649-24.669 4.673c0.316-0.127 0.524-0.396 0.85-0.517l295.566-122.82-312.073-0.002z m519.94 4.449l-26.221-47.445-0.004-0.002-87.86 43h-0.224L231.984 232.92h445.558l-58.928-118.89z m269.435 44.889c0-27.249-22.09-49.337-49.337-49.337H668.93l60.54 123.336H888.05v-74h-0.001z m49.336 123.34H98.675c-0.007 0-0.013-0.006-0.021-0.006-18.062-0.004-34.76-5.214-49.318-13.684v630.38c0 40.875 33.134 74.002 74.001 74.002h789.371c40.872 0 74.003-33.127 74.003-74.001V726.274h-98.674c-54.492 0-98.666-44.172-98.666-98.668 0-54.492 44.174-98.669 98.666-98.669h98.674V331.593c0.003-27.248-22.086-49.333-49.326-49.333z m49.328 394.683l0.001-98.673h-98.669c-27.247 0-49.336 22.088-49.336 49.336 0 27.252 22.09 49.337 49.336 49.337h98.668z m-98.67-74.007h49.337v49.33h-49.336v-49.33z" p-id="14041" fill="#7f7f7f"></path></svg>