<?xml version="1.0" standalone="no"?><!DOCTYPE svg PUBLIC "-//W3C//DTD SVG 1.1//EN" "http://www.w3.org/Graphics/SVG/1.1/DTD/svg11.dtd"><svg t="1532424693885" class="icon" style="" viewBox="0 0 1024 1024" version="1.1" xmlns="http://www.w3.org/2000/svg" p-id="14763" xmlns:xlink="http://www.w3.org/1999/xlink" width="64" height="64"><defs><style type="text/css"></style></defs><path d="M685.379368 362.873263L461.608421 611.166316 350.531368 512a20.695579 20.695579 0 0 0-29.103157 1.509053c-7.545263 8.407579-6.952421 21.557895 1.509052 29.103158l126.383158 112.963368c8.407579 7.653053 21.557895 6.952421 29.103158-1.509053l237.568-263.653052a20.641684 20.641684 0 0 0-30.612211-27.540211" fill="#7f7f7f" p-id="14764"></path><path d="M863.878737 533.126737c0 191.326316-152.522105 369.071158-371.119158 432.774737-221.884632-62.302316-370.688-236.058947-370.688-432.774737V186.475789c15.629474 2.533053 32.336842 3.772632 49.637053 3.772632 39.397053 0 82.081684-6.467368 126.814315-19.402105a456.488421 456.488421 0 0 0 196.554106-116.143158c36.486737 33.414737 104.394105 86.824421 191.757473 115.658105 40.96 13.473684 81.866105 20.372211 121.532632 20.372211 19.402105 0 38.319158-1.616842 55.511579-4.742737v347.189895z m9.162105-390.197895a37.834105 37.834105 0 0 0-7.06021 0.700632c-15.306105 3.233684-34.708211 5.820632-57.613474 5.820631a346.273684 346.273684 0 0 1-108.597895-18.270316C614.507789 103.046737 549.079579 49.259789 516.311579 18.108632a30.612211 30.612211 0 0 0-21.234526-8.623158 32.498526 32.498526 0 0 0-23.65979 10.455579 411.109053 411.109053 0 0 1-184.21221 111.238736c-46.457263 13.419789-84.830316 17.839158-115.442527 17.839158-21.827368 0-39.720421-2.263579-53.679158-5.173894a31.258947 31.258947 0 0 0-6.359579-0.700632 31.420632 31.420632 0 0 0-30.881684 31.797895v358.184421c0 224.579368 174.888421 409.707789 402.863158 473.034105a34.115368 34.115368 0 0 0 18.647579-0.053895c224.202105-64.565895 402.809263-248.454737 402.809263-472.98021V174.457263a31.636211 31.636211 0 0 0-32.121263-31.528421z" fill="#7f7f7f" p-id="14765"></path></svg>