<?xml version="1.0" standalone="no"?><!DOCTYPE svg PUBLIC "-//W3C//DTD SVG 1.1//EN" "http://www.w3.org/Graphics/SVG/1.1/DTD/svg11.dtd"><svg t="1532415606061" class="icon" style="" viewBox="0 0 1024 1024" version="1.1" xmlns="http://www.w3.org/2000/svg" p-id="10015" xmlns:xlink="http://www.w3.org/1999/xlink" width="64" height="64"><defs><style type="text/css"></style></defs><path d="M965.973333 624.64c-13.653333-17.066667-44.373333-30.72-105.813333 3.413333 6.826667-23.893333-13.653333-40.96-37.546667-40.96-20.48 0-44.373333 6.826667-64.853333 23.893333-27.306667-37.546667-58.026667-34.133333-112.64 3.413333-20.48 13.653333-40.96 23.893333-54.613333 34.133333-3.413333 3.413333-6.826667 3.413333-10.24 6.826667 6.826667 0 10.24 3.413333 17.066667 3.413333 78.506667 0 139.946667 0 139.946667 68.266667 0 51.2-61.44 68.266667-92.16 68.266667l-146.773333 0c-61.44 0-119.466667-61.44-119.466667-61.44s68.266667 27.306667 119.466667 27.306667l146.773333 0c0 0 58.026667-3.413333 58.026667-34.133333 0-30.72-17.066667-34.133333-105.813333-34.133333-58.026667 0-119.466667-34.133333-119.466667-34.133333s-61.44-44.373333-78.506667-54.613333c-44.373333-27.306667-78.506667-54.613333-153.6-23.893333-47.786667 20.48-153.6 68.266667-153.6 68.266667l95.573333 215.04L238.933333 826.026667c27.306667-17.066667 40.96-20.48 78.506667-3.413333 34.133333 17.066667 139.946667 71.68 167.253333 85.333333 81.92 37.546667 116.053333 3.413333 153.6-17.066667 34.133333-20.48 269.653333-174.08 293.546667-194.56C969.386667 672.426667 983.04 648.533333 965.973333 624.64z" p-id="10016" fill="#ffffff"></path><path d="M549.546667 354.986667c-61.44 0-112.64 51.2-112.64 112.64s51.2 112.64 112.64 112.64 112.64-51.2 112.64-112.64S614.4 354.986667 549.546667 354.986667zM566.613333 518.826667l-34.133333 0 0-68.266667-27.306667 0 34.133333-34.133333 27.306667 0L566.613333 518.826667z" p-id="10017" fill="#ffffff"></path><path d="M686.08 218.453333c-44.373333 0-78.506667 34.133333-78.506667 78.506667 0 6.826667 0 13.653333 3.413333 17.066667 30.72 13.653333 58.026667 34.133333 75.093333 61.44 0 0 0 0 0 0 44.373333 0 78.506667-34.133333 78.506667-78.506667S730.453333 218.453333 686.08 218.453333zM699.733333 331.093333l-23.893333 0L675.84 283.306667l-17.066667 0 23.893333-23.893333 17.066667 0L699.733333 331.093333z" p-id="10018" fill="#ffffff"></path></svg>