<?xml version="1.0" standalone="no"?><!DOCTYPE svg PUBLIC "-//W3C//DTD SVG 1.1//EN" "http://www.w3.org/Graphics/SVG/1.1/DTD/svg11.dtd"><svg t="1532416112957" class="icon" style="" viewBox="0 0 1024 1024" version="1.1" xmlns="http://www.w3.org/2000/svg" p-id="10863" xmlns:xlink="http://www.w3.org/1999/xlink" width="64" height="64"><defs><style type="text/css"></style></defs><path d="M670.607 693.286h-317.214c-12.582 0-22.681 10.098-22.681 22.681s10.098 22.681 22.681 22.681h317.214c12.582 0 22.681-10.098 22.681-22.681s-10.098-22.681-22.681-22.681v0zM670.607 580.042h-317.214c-12.582 0-22.681 10.098-22.681 22.681s10.098 22.681 22.681 22.681h317.214c12.582 0 22.681-10.098 22.681-22.681s-10.098-22.681-22.681-22.681v0zM738.647 240.147h-68.042v-45.361h-61.051c-19.573-27.030-55.769-45.361-97.556-45.361s-77.983 18.331-97.556 45.361h-61.051v45.361h-68.042c-50.021 0-90.566 40.545-90.566 90.566v453.14c0 50.021 40.545 90.566 90.566 90.566h453.14c50.021 0 90.566-40.545 90.566-90.566v-453.14c0.156-50.021-40.39-90.566-90.41-90.566v0zM398.753 240.147h50.332c0-25.010 28.118-45.361 62.914-45.361s62.914 20.35 62.914 45.361h50.332v90.566h-226.493v-90.566zM783.853 783.853c0 25.010-20.35 45.361-45.361 45.361h-453.14c-25.010 0-45.361-20.35-45.361-45.361v-453.14c0-25.010 20.35-45.361 45.361-45.361h68.042v90.566h317.214v-90.566h68.042c25.010 0 45.361 20.35 45.361 45.361v453.14h-0.156zM670.607 466.639h-317.214c-12.582 0-22.681 10.098-22.681 22.681s10.098 22.681 22.681 22.681h317.214c12.582 0 22.681-10.098 22.681-22.681 0-12.428-10.098-22.681-22.681-22.681v0zM670.607 466.639z" p-id="10864" fill="#ffc629"></path></svg>