<?xml version="1.0" standalone="no"?><!DOCTYPE svg PUBLIC "-//W3C//DTD SVG 1.1//EN" "http://www.w3.org/Graphics/SVG/1.1/DTD/svg11.dtd"><svg t="1532426786606" class="icon" style="" viewBox="0 0 1024 1024" version="1.1" xmlns="http://www.w3.org/2000/svg" p-id="62072" xmlns:xlink="http://www.w3.org/1999/xlink" width="64" height="64"><defs><style type="text/css"></style></defs><path d="M912 559.1V712c0 8.9-2.4 17.1-7 24.6-4.7 7.6-11 13.4-19.2 17.3l-164.7 82.4c-6.2 3.4-13.1 5.2-20.9 5.2s-14.8-1.7-20.9-5.2l-164.7-82.4c-1-0.5-1.8-1-2.6-1.4-0.5 0.5-1.4 1-2.6 1.4l-164.7 82.4c-6.2 3.4-13.1 5.2-20.9 5.2-7.9 0-14.8-1.7-20.9-5.2l-164.7-82.4c-8.1-3.9-14.5-9.7-19.2-17.3-4.7-7.6-7-15.8-7-24.6V559.1c0-9.3 2.6-17.9 8-25.7 5.3-7.9 12.2-13.8 20.7-17.7l159.5-68.3V300.2c0-9.3 2.6-17.9 8-25.7 5.3-7.9 12.2-13.8 20.7-17.7l164.7-70.6c5.6-2.4 11.8-3.7 18.5-3.7 6.6 0 12.8 1.3 18.5 3.7l164.7 70.6c8.6 3.9 15.6 9.9 20.7 17.7 5.3 7.9 8 16.5 8 25.7v147.1l159.5 68.3c8.9 3.9 15.8 9.9 20.9 17.7 5.1 7.8 7.6 16.4 7.6 25.8z m-588.2 56.6l148.5-63.6-148.5-63.5-148.5 63.5 148.5 63.6z m23.5 166.8l141.2-70.6V596.6l-141.2 60.3v125.6zM512 368.6L674.2 299 512 229.5 349.8 299 512 368.6zM535.5 508l141.2-60.6v-97.8L535.5 410v98z m164.7 107.7l148.5-63.6-148.5-63.5-148.5 63.5 148.5 63.6z m23.6 166.8L865 711.9V596.6l-141.2 60.3v125.6z" p-id="62073" fill="#ff911a"></path></svg>