<?xml version="1.0" standalone="no"?><!DOCTYPE svg PUBLIC "-//W3C//DTD SVG 1.1//EN" "http://www.w3.org/Graphics/SVG/1.1/DTD/svg11.dtd"><svg t="1532426594962" class="icon" style="" viewBox="0 0 1024 1024" version="1.1" xmlns="http://www.w3.org/2000/svg" p-id="51452" xmlns:xlink="http://www.w3.org/1999/xlink" width="64" height="64"><defs><style type="text/css"></style></defs><path d="M973.684803 172.517802c-23.300165 0-42.133459 18.591842-42.133459 41.529828v12.072625C835.453254 92.355577 677.181149 10.744636 509.250943 10.744636 269.971528 10.744636 58.579875 176.622495 5.943233 405.398727c-2.173072 5.070502-3.259609 10.503183-3.259609 15.935864 0 22.937986 18.95402 41.529828 42.133459 41.529828 22.696534 0 41.288375-17.867484 42.13346-40.081113 21.368545-92.114124 74.488092-175.777411 149.700542-235.657628 37.787314-30.060835 79.920773-53.361 125.434567-69.538317 47.083235-16.660222 96.580995-25.111059 147.165291-25.111058 50.584296 0 100.082056 8.450837 147.165292 25.111058 45.513794 16.05659 87.647253 39.477482 125.434567 69.538317 75.21245 59.880217 128.452723 143.543504 149.700542 235.657628 0.845084 22.213629 19.436925 40.081113 42.133459 40.081113 23.300165 0 42.133459-18.591842 42.133459-41.529828V214.168357c0-22.937986-18.95402-41.650554-42.133459-41.650555zM973.684803 571.759491c-22.696534 0-41.288375 17.867484-42.133459 40.081113-21.368545 92.114124-74.488092 175.777411-149.700542 235.657628-37.787314 30.060835-79.920773 53.361-125.434567 69.538316-47.083235 16.660222-96.580995 25.111059-147.165292 25.111059-50.584296 0-100.082056-8.450837-147.165291-25.111059-45.513794-16.05659-87.647253-39.477482-125.434567-69.538316-75.21245-59.880217-128.452723-143.543504-149.700542-235.657628-0.845084-22.213629-19.436925-40.081113-42.13346-40.081113-23.300165 0-42.133459 18.591842-42.133459 41.529828v207.28696c0 22.937986 18.95402 41.529828 42.133459 41.529828s42.133459-18.591842 42.13346-41.529828v-12.072624c96.09809 133.885404 254.370196 215.496345 422.3004 215.496345 239.279415 0 450.671068-165.877859 503.307711-394.654091 2.173072-5.070502 3.259609-10.503183 3.259608-15.935864 0-23.058713-18.95402-41.650554-42.133459-41.650554z" p-id="51453" fill="#ff911a"></path><path d="M301.481078 595.180382l77.868427-355.900967 195.697241-46.841782-101.892949 252.92148 243.746286-37.787314-251.714219 458.880453 36.580052-299.88399L301.481078 595.180382z" p-id="51454" fill="#ff911a"></path></svg>