<?xml version="1.0" standalone="no"?><!DOCTYPE svg PUBLIC "-//W3C//DTD SVG 1.1//EN" "http://www.w3.org/Graphics/SVG/1.1/DTD/svg11.dtd"><svg t="1532425908931" class="icon" style="" viewBox="0 0 1070 1024" version="1.1" xmlns="http://www.w3.org/2000/svg" p-id="16568" xmlns:xlink="http://www.w3.org/1999/xlink" width="66.875" height="64"><defs><style type="text/css"></style></defs><path d="M1027.2216142 860.80958661h-63.11925496a469.3732166 469.3732166 0 0 0-5.39924987-56.59045705h40.50566496v-40.57343663c0-129.78529757-86.72685103-242.60475456-210.93217212-274.36769964l-8.33607824-1.98800818c-11.589183-3.97601636-19.69935264-14.77451482-19.69935264-26.25074287 0-11.27290917 7.61316662-21.48404194 19.65417067-26.11519693a150.68197254 150.68197254 0 0 0 87.47235362-136.63037064c0-61.85415969-38.33692758-117.69911284-95.65029622-139.65756422a259.41245822 259.41245822 0 0 0-32.71176916-65.83017606c102.51796027 10.07558685 184.38774513 100.30404221 184.38774644 205.48774028a207.20465662 207.20465662 0 0 1-52.99848745 138.43765092l-14.02901093 15.6555633 18.50202901 9.69153877c111.26067757 58.35255405 180.36654809 173.90552181 180.36654809 301.56726527v68.85736966c0 15.63297233-12.56059676 28.30652401-28.0128412 28.30652402zM572.08072873 478.54726781c170.1780063 55.48349737 293.61523253 215.72146275 293.61523252 404.49186332v113.24868444H16.29693492v-113.24868444c0-188.74780828 123.45981723-348.98577495 293.63782352-404.46927233-74.45993712-44.77536287-124.47641294-126.28369193-124.47641165-219.67488942C185.45834679 117.38494289 299.85917289 2.66784296 441.00774358 2.66784296c141.1259797 0 255.5493968 114.71709993 255.5493968 256.22712642 0 93.39119619-50.01647453 174.87693427-124.47641165 219.65229843zM73.11330054 883.03913113v56.27418193h735.7888848v-56.27418193c0-201.26322306-161.9774727-365.13834-362.20151035-368.21071686-1.92023522 0.04518197-3.77269747 0.29368284-5.69293141 0.29368283-1.89764423 0-3.75010649-0.24850086-5.62515974-0.29368283-200.24662863 3.09496657-362.26928331 166.94749381-362.2692833 368.21071686zM441.00774358 59.61975451c-109.5889432 0-198.75562217 89.39258883-198.75562217 199.27521487 0 107.96239082 86.13948535 195.95433844 193.10787145 198.98153205 1.92023522-0.02259099 3.77269747-0.29368284 5.69293269-0.29368283 1.89764423 0 3.7275155 0.27109185 5.62515845 0.29368283 106.94579638-3.07237558 193.06268946-91.04173221 193.06269076-198.98153205 0-109.88262604-89.14408797-199.27521487-198.73303118-199.27521487z" p-id="16569" fill="#ff911a"></path></svg>