<?xml version="1.0" standalone="no"?><!DOCTYPE svg PUBLIC "-//W3C//DTD SVG 1.1//EN" "http://www.w3.org/Graphics/SVG/1.1/DTD/svg11.dtd"><svg t="1532426941347" class="icon" style="" viewBox="0 0 1024 1024" version="1.1" xmlns="http://www.w3.org/2000/svg" p-id="72156" xmlns:xlink="http://www.w3.org/1999/xlink" width="64" height="64"><defs><style type="text/css"></style></defs><path d="M987.2 616.64l-69.44-92.8L812.48 384a29.12 29.12 0 0 0-45.76 0l-121.6 145.92L375.36 150.4A28.8 28.8 0 0 0 352 138.24 29.12 29.12 0 0 0 328.32 152L35.2 618.56a29.12 29.12 0 0 0 24.64 44.48H64v2.24h908.48l-1.92-2.24a29.12 29.12 0 0 0 16.64-45.76zM189.76 827.52a29.12 29.12 0 0 0 0 58.24H832a29.12 29.12 0 1 0 0-58.24z m758.4-87.68a29.12 29.12 0 0 0-29.12-29.12H102.4a29.12 29.12 0 1 0 0 57.28h816.64a29.12 29.12 0 0 0 29.12-28.16z" fill="#ff911a" p-id="72157"></path></svg>