<?xml version="1.0" standalone="no"?><!DOCTYPE svg PUBLIC "-//W3C//DTD SVG 1.1//EN" "http://www.w3.org/Graphics/SVG/1.1/DTD/svg11.dtd"><svg t="1532426874512" class="icon" style="" viewBox="0 0 1024 1024" version="1.1" xmlns="http://www.w3.org/2000/svg" p-id="66865" xmlns:xlink="http://www.w3.org/1999/xlink" width="64" height="64"><defs><style type="text/css"></style></defs><path d="M80 438.4 851.2 812.8 822.4 870.4 54.4 496Z" p-id="66866" fill="#ff911a"></path><path d="M137.6 592 812.8 64 851.2 115.2 179.2 640Z" p-id="66867" fill="#ff911a"></path><path d="M185.6 723.2C83.2 723.2 0 640 0 537.6S83.2 352 185.6 352s185.6 83.2 185.6 185.6C374.4 640 288 723.2 185.6 723.2z" p-id="66868" fill="#ff911a"></path><path d="M723.2 371.2c-102.4 0-185.6-83.2-185.6-185.6S620.8 0 723.2 0s185.6 83.2 185.6 185.6S825.6 371.2 723.2 371.2z" p-id="66869" fill="#ff911a"></path><path d="M838.4 1024c-102.4 0-185.6-83.2-185.6-185.6s83.2-185.6 185.6-185.6S1024 736 1024 838.4 940.8 1024 838.4 1024z" p-id="66870" fill="#ff911a"></path></svg>