<?xml version="1.0" standalone="no"?><!DOCTYPE svg PUBLIC "-//W3C//DTD SVG 1.1//EN" "http://www.w3.org/Graphics/SVG/1.1/DTD/svg11.dtd"><svg t="1532427100112" class="icon" style="" viewBox="0 0 1024 1024" version="1.1" xmlns="http://www.w3.org/2000/svg" p-id="73531" xmlns:xlink="http://www.w3.org/1999/xlink" width="64" height="64"><defs><style type="text/css"></style></defs><path d="M512 608l48 32c-16 16-32 32-64 32s-48-16-64-32z m0-272c32 0 48 16 64 32H448c16-16 32-32 64-32z" p-id="73532" fill="#ff911a"></path><path d="M400 688c32 48 80 64 112 64s80-32 112-64 96 80 96 128v64H304v-64c0-48 48-96 96-128z m0-352c-48-32-96-80-96-128v-64h416v64c0 48-48 96-96 128s-64-64-112-64-80 16-112 64z" p-id="73533" fill="#ff911a"></path><path d="M512 688c32 0 48-16 64-32l-48-32-48 32c-16 16 0 32 32 32zM304 208c0 48 48 96 96 128s80-64 112-64 80 32 112 64 96-80 96-128v-64H304z m208 544c-48 0-80-32-112-64s-96 80-96 128v64h416v-64c0-48-48-96-96-128s-64 64-112 64z m-48-368h112c-16-16-32-32-64-32s-48 16-64 32z m432 496v64H128v-64h112v-64c0-64 48-128 128-192l48-32 64-48v-64l-64-48-48-32c-96-64-128-128-128-192v-64H128V80h768v64H784v64c0 64-48 128-128 192l-48 32-64 48v80l64 48 48 32c96 64 128 128 128 192v64z" p-id="73534" fill="#ff911a"></path></svg>