<?xml version="1.0" standalone="no"?><!DOCTYPE svg PUBLIC "-//W3C//DTD SVG 1.1//EN" "http://www.w3.org/Graphics/SVG/1.1/DTD/svg11.dtd"><svg t="1532065129414" class="icon" style="" viewBox="0 0 1024 1024" version="1.1" xmlns="http://www.w3.org/2000/svg" p-id="6050" xmlns:xlink="http://www.w3.org/1999/xlink" width="64" height="64"><defs><style type="text/css"></style></defs><path d="M825.8 521.6V861c0 19.1-15.5 34.7-34.7 34.7-19.1 0-34.7-15.5-34.7-34.7V521.6c0-19.1 15.5-34.7 34.7-34.7 19.2 0 34.7 15.6 34.7 34.7z m-34.6-324.4c19.1 0 34.7-15.5 34.7-34.7v-29.7c0-19.1-15.5-34.7-34.7-34.7-19.1 0-34.7 15.5-34.7 34.7v29.7c0 19.2 15.5 34.7 34.7 34.7zM304.7 496.9c0 57.5-46.4 104.3-103.4 104.3S97.8 554.4 97.8 496.9s46.4-104.3 103.4-104.3 103.5 46.8 103.5 104.3z m-69.4 0c0-19.3-15.3-35-34.1-35s-34.1 15.7-34.1 35 15.3 35 34.1 35 34.1-15.7 34.1-35z m364.6 170.6c0 57.5-46.4 104.3-103.4 104.3-57 0-103.4-46.8-103.4-104.3s46.4-104.3 103.4-104.3c57-0.1 103.4 46.7 103.4 104.3z m-69.3 0c0-19.3-15.3-35-34.1-35s-34.1 15.7-34.1 35 15.3 35 34.1 35c18.8-0.1 34.1-15.8 34.1-35z m364.6-321.1c0 57.5-46.4 104.3-103.4 104.3-57 0-103.4-46.8-103.4-104.3s46.4-104.3 103.4-104.3c57 0 103.4 46.8 103.4 104.3z m-69.3 0c0-19.3-15.3-35-34.1-35s-34.1 15.7-34.1 35 15.3 35 34.1 35 34.1-15.7 34.1-35z m-329.4 460c-19.1 0-34.7 15.5-34.7 34.7V861c0 19.1 15.5 34.7 34.7 34.7s34.7-15.5 34.7-34.7v-20c-0.1-19.1-15.6-34.6-34.7-34.6z m0-286c19.1 0 34.7-15.5 34.7-34.7V132.9c0-19.1-15.5-34.7-34.7-34.7s-34.7 15.5-34.7 34.7v352.8c0 19.2 15.5 34.7 34.7 34.7zM201.8 646.7c-19.1 0-34.7 15.5-34.7 34.7V861c0 19.1 15.5 34.7 34.7 34.7s34.7-15.5 34.7-34.7V681.4c0-19.2-15.6-34.7-34.7-34.7z m0-297.8c19.1 0 34.7-15.5 34.7-34.7V132.9c0-19.1-15.5-34.7-34.7-34.7s-34.7 15.5-34.7 34.7v181.3c0 19.2 15.5 34.7 34.7 34.7z" p-id="6051" fill="#ff911a"></path></svg>