<?xml version="1.0" standalone="no"?><!DOCTYPE svg PUBLIC "-//W3C//DTD SVG 1.1//EN" "http://www.w3.org/Graphics/SVG/1.1/DTD/svg11.dtd"><svg t="1532182101723" class="icon" style="" viewBox="0 0 1024 1024" version="1.1" xmlns="http://www.w3.org/2000/svg" p-id="27245" xmlns:xlink="http://www.w3.org/1999/xlink" width="64" height="64"><defs><style type="text/css"></style></defs><path d="M839.1 672.2L772.8 589V433.5c0-71-25.6-136.8-72.1-185.3-27.5-28.7-60.5-49.9-98.3-63.1-3.5-19-13.4-36.4-28.4-49.4-33.9-29.3-90-29.3-123.7 0-15.2 13.1-25.2 30.5-28.6 49.4-37.7 13.1-70.8 34.2-98.3 63-46.4 48.6-72.1 114.4-72.1 185.3l0.2 155.2-65.8 82.7c-9.3 9.4-14.4 21.6-14.4 34.4v40.5c0 27.7 23.7 50.2 52.9 50.2H800c29.2 0 52.8-22.5 52.8-50.2v-40.5c0-12.7-5.1-24.9-13.7-33.5zM540.2 172c-7.8-0.6-20.4-1.9-28.1-1.9-7.7 0-20.8 1.2-28.6 1.9 13.1-20.3 46.9-16.5 56.7 0zM224.9 746.3l-0.1-40.2 65.8-82.7c9.2-9.4 14.3-21.6 14.3-34.4V433.5c0-58.2 20.7-111.9 58.1-151.2 18.6-19.4 40.5-34.4 65.1-44.8 51.6-21.8 116.6-21.8 168.1 0 24.6 10.5 46.5 25.5 65 44.8 37.5 39.2 58.1 92.9 58.1 151.2V589c0 12.9 5.1 25.2 13.7 33.6l66.4 83.2 0.5 39.9-575 0.6zM577.9 818.1c-4 8.8-9.8 16.8-17.4 23.4-26.5 22.9-70.4 22.9-96.8 0-7.6-6.7-13.5-14.7-17.5-23.4h-55.9c5.7 23.3 18.6 44.5 37.4 60.9 23 20.1 53 31.2 84.5 31.2 31.4 0 61.4-11 84.3-31.1 18.8-16.3 31.7-37.6 37.4-60.9l-56-0.1z" p-id="27246" fill="#ff911a"></path></svg>