<?xml version="1.0" standalone="no"?><!DOCTYPE svg PUBLIC "-//W3C//DTD SVG 1.1//EN" "http://www.w3.org/Graphics/SVG/1.1/DTD/svg11.dtd"><svg t="1532059843603" class="icon" style="" viewBox="0 0 1024 1024" version="1.1" xmlns="http://www.w3.org/2000/svg" p-id="5338" xmlns:xlink="http://www.w3.org/1999/xlink" width="64" height="64"><defs><style type="text/css"></style></defs><path d="M827.57460651 253.16556686l0 574.38517135L271.72850461 827.55073821c-63.46805134 0-114.8775003-13.74217443-114.87750031-77.1822831 0-63.49715911 51.40828387-96.92756309 114.87750031-96.92756309l496.50198186 0L768.23048761 80.23398741 233.41737643 80.23398741c-84.22277575 0-153.15952071 68.9367461-153.15952072 153.18746454l0 555.20224597c0 84.25071843 68.9367461 153.18746453 153.15952072 153.18746453l708.41765319 0 0-688.64559445L827.57460651 253.16556686 827.57460651 253.16556686zM310.01169123 712.05732579l458.21879638 0 0 55.02691328L310.01169123 767.08423907 310.01169123 712.05732579 310.01169123 712.05732579z" fill="#ffc629" p-id="5339"></path></svg>